<svg id="arrow-repeat" xmlns="http://www.w3.org/2000/svg" width="27.629" height="21.478" viewBox="0 0 27.629 21.478">
  <path id="Path_1" data-name="Path 1" d="M20.426,7.68h7.04a.448.448,0,0,1,.344.734l-3.52,4.225a.448.448,0,0,1-.688,0l-3.52-4.225a.448.448,0,0,1,.344-.734ZM.732,11.261h7.04a.448.448,0,0,0,.344-.734L4.6,6.3a.448.448,0,0,0-.688,0L.388,10.526a.448.448,0,0,0,.344.734Z" transform="translate(-0.284 1.269)" fill="#a5a5a5"/>
  <path id="Path_2" data-name="Path 2" d="M12.677,3.789A8.932,8.932,0,0,0,5.771,7.044a.9.9,0,1,1-1.38-1.139,10.746,10.746,0,0,1,18.88,5.045H21.45a8.956,8.956,0,0,0-8.773-7.162ZM3.9,14.531a8.956,8.956,0,0,0,15.679,3.907.9.9,0,1,1,1.38,1.139,10.746,10.746,0,0,1-18.88-5.045Z" transform="translate(1.138 -2.002)" fill="#a5a5a5" fill-rule="evenodd"/>
</svg>
