<svg xmlns="http://www.w3.org/2000/svg" width="20.997" height="23" viewBox="0 0 20.997 23">
  <path id="bell_1_" data-name="bell (1)" d="M11.5,23a2.939,2.939,0,0,0,3-2.875h-6A2.939,2.939,0,0,0,11.5,23Zm0-20.242-1.2.231A5.819,5.819,0,0,0,5.5,8.625,29.955,29.955,0,0,1,4.811,14a18.012,18.012,0,0,1-.994,3.246H19.181A18.1,18.1,0,0,1,18.186,14,29.955,29.955,0,0,1,17.5,8.625a5.819,5.819,0,0,0-4.8-5.635l-1.2-.234Zm9.329,14.492A3.687,3.687,0,0,0,22,18.687H1a3.687,3.687,0,0,0,1.17-1.437C3.52,14.662,4,9.89,4,8.625A7.274,7.274,0,0,1,10.006,1.58a1.419,1.419,0,0,1,.7-1.364,1.555,1.555,0,0,1,1.586,0,1.419,1.419,0,0,1,.7,1.364A7.273,7.273,0,0,1,19,8.625C19,9.89,19.478,14.662,20.827,17.249Z" transform="translate(-1 0.001)" fill="#f150e6"/>
</svg>
