<svg xmlns="http://www.w3.org/2000/svg" width="100.672" height="79.267" viewBox="0 0 100.672 79.267">
  <path id="biking_2" d="M37.752,14.863A7.492,7.492,0,0,1,30.2,7.431a7.551,7.551,0,0,1,15.1,0,7.492,7.492,0,0,1-7.55,7.431ZM38.381,33.6a5.069,5.069,0,0,1-3.146,1.084H25.168a4.955,4.955,0,1,1,0-9.908h8.3l11.2-8.825a5.086,5.086,0,0,1,6.419.105L68.71,30.914a4.908,4.908,0,0,1-.484,7.883L55.37,47.238V64.4a5.034,5.034,0,0,1-10.067,0V44.588a4.933,4.933,0,0,1,2.241-4.121L54.05,36.2,44.887,28.47ZM20.134,39.633a19.819,19.819,0,1,1,0,39.633,19.819,19.819,0,1,1,0-39.633Zm0,29.725A9.91,9.91,0,1,0,10.067,59.45,9.989,9.989,0,0,0,20.134,69.359Zm60.4-29.725A19.819,19.819,0,1,1,60.4,59.45,19.977,19.977,0,0,1,80.537,39.633Zm0,29.725A9.91,9.91,0,1,0,70.47,59.45,9.989,9.989,0,0,0,80.537,69.359Z" fill="#fff"/>
</svg>
