<svg xmlns="http://www.w3.org/2000/svg" width="66.209" height="88.279" viewBox="0 0 66.209 88.279">
  <path id="clipboard-check" d="M57.933,11.035H44.14a11.035,11.035,0,0,0-22.07,0H8.276A8.278,8.278,0,0,0,0,19.311V80a8.278,8.278,0,0,0,8.276,8.276H57.933A8.278,8.278,0,0,0,66.209,80V19.311A8.278,8.278,0,0,0,57.933,11.035ZM33.1,6.9a4.138,4.138,0,1,1-4.138,4.138A4.128,4.128,0,0,1,33.1,6.9ZM54,46.864,29.346,71.313a2.071,2.071,0,0,1-2.931-.017L12.173,56.933A2.071,2.071,0,0,1,12.19,54l4.9-4.862a2.071,2.071,0,0,1,2.931.017l7.931,8L46.226,39.019a2.071,2.071,0,0,1,2.931.017l4.862,4.9A2.071,2.071,0,0,1,54,46.864Z" fill="#fcf9f9"/>
</svg>
