<svg xmlns="http://www.w3.org/2000/svg" width="128.913" height="114.589" viewBox="0 0 128.913 114.589">
  <path id="exclamation-triangle" d="M127.462,98.478a10.749,10.749,0,0,1-9.305,16.111H10.755A10.749,10.749,0,0,1,1.449,98.478l53.7-93.11a10.749,10.749,0,0,1,18.61,0l53.7,93.11ZM64.456,79.228a10.3,10.3,0,1,0,10.3,10.3A10.3,10.3,0,0,0,64.456,79.228ZM54.682,42.222l1.66,30.438A2.686,2.686,0,0,0,59.024,75.2H69.889A2.686,2.686,0,0,0,72.57,72.66l1.66-30.438a2.686,2.686,0,0,0-2.682-2.832H57.363a2.686,2.686,0,0,0-2.681,2.832Z" transform="translate(0)" fill="#ee5959"/>
</svg>
