<svg xmlns="http://www.w3.org/2000/svg" width="41.231" height="49" viewBox="0 0 41.231 49">
  <path id="stopwatch" d="M57.228,29.094C57.228,40.09,48,49,36.614,49S16,40.09,16,29.094A20.127,20.127,0,0,1,33.443,9.427v-3.3H30.668a1.173,1.173,0,0,1-1.189-1.148V1.148A1.173,1.173,0,0,1,30.668,0H42.561A1.173,1.173,0,0,1,43.75,1.148V4.977a1.173,1.173,0,0,1-1.189,1.148H39.786v3.3A20.841,20.841,0,0,1,49.667,13.7l2.725-2.632a1.22,1.22,0,0,1,1.685,0l2.8,2.708a1.122,1.122,0,0,1,0,1.627l-2.914,2.814-.059.057A19.223,19.223,0,0,1,57.228,29.094ZM39.786,32.539V18.04A1.173,1.173,0,0,0,38.6,16.892H34.632a1.173,1.173,0,0,0-1.189,1.148v14.5a1.173,1.173,0,0,0,1.189,1.148H38.6A1.173,1.173,0,0,0,39.786,32.539Z" transform="translate(-16)" fill="#29c3f6"/>
</svg>
