<svg xmlns="http://www.w3.org/2000/svg" width="41.742" height="29.22" viewBox="0 0 41.742 29.22">
  <path id="users" d="M6.261,44.523a4.174,4.174,0,1,0-4.174-4.174A4.178,4.178,0,0,0,6.261,44.523Zm29.22,0a4.174,4.174,0,1,0-4.174-4.174A4.178,4.178,0,0,0,35.481,44.523Zm2.087,2.087H33.394a4.162,4.162,0,0,0-2.942,1.213,9.54,9.54,0,0,1,4.9,7.135h4.3a2.085,2.085,0,0,0,2.087-2.087V50.784A4.178,4.178,0,0,0,37.568,46.61Zm-16.7,0a7.3,7.3,0,1,0-7.3-7.3A7.3,7.3,0,0,0,20.871,46.61ZM25.88,48.7h-.541a10.086,10.086,0,0,1-8.935,0h-.541a7.516,7.516,0,0,0-7.514,7.514v1.878a3.131,3.131,0,0,0,3.131,3.131H30.263a3.131,3.131,0,0,0,3.131-3.131V56.211A7.516,7.516,0,0,0,25.88,48.7Zm-14.59-.874A4.162,4.162,0,0,0,8.348,46.61H4.174A4.178,4.178,0,0,0,0,50.784v2.087a2.085,2.085,0,0,0,2.087,2.087h4.3a9.564,9.564,0,0,1,4.9-7.135Z" transform="translate(0 -32)" fill="#fff"/>
</svg>
