<svg xmlns="http://www.w3.org/2000/svg" width="27.427" height="31.345" viewBox="0 0 27.427 31.345">
  <path id="bell" d="M13.713,31.345a3.917,3.917,0,0,0,3.916-3.918H9.8A3.917,3.917,0,0,0,13.713,31.345ZM26.9,22.179c-1.183-1.271-3.4-3.183-3.4-9.446a9.668,9.668,0,0,0-7.832-9.5V1.959a1.958,1.958,0,1,0-3.916,0V3.235a9.668,9.668,0,0,0-7.832,9.5c0,6.263-2.213,8.175-3.4,9.446A1.913,1.913,0,0,0,0,23.508a1.961,1.961,0,0,0,1.965,1.959h23.5a1.96,1.96,0,0,0,1.965-1.959A1.912,1.912,0,0,0,26.9,22.179Z" transform="translate(0.001)" fill="#3380b8"/>
</svg>
