<svg xmlns="http://www.w3.org/2000/svg" width="40.639" height="32.511" viewBox="0 0 40.639 32.511">
  <path id="biking" d="M25.4,6.1a3.048,3.048,0,1,0-3.048-3.048A3.048,3.048,0,0,0,25.4,6.1Zm-.254,7.683a2.026,2.026,0,0,0,1.27.444h4.064a2.032,2.032,0,0,0,0-4.064H27.128L22.606,6.54a2.028,2.028,0,0,0-2.591.043l-7.112,6.1a2.032,2.032,0,0,0,.2,3.233l5.19,3.462v7.041a2.032,2.032,0,1,0,4.064,0V18.288a2.032,2.032,0,0,0-.9-1.69L18.82,14.847l3.7-3.17Zm7.366,2.476a8.128,8.128,0,1,0,8.128,8.128A8.128,8.128,0,0,0,32.511,16.256Zm0,12.192a4.064,4.064,0,1,1,4.064-4.064A4.064,4.064,0,0,1,32.511,28.447ZM8.128,16.256a8.128,8.128,0,1,0,8.128,8.128,8.128,8.128,0,0,0-8.128-8.128Zm0,12.192a4.064,4.064,0,1,1,4.064-4.064A4.064,4.064,0,0,1,8.128,28.447Z" fill="#fff"/>
</svg>
