<svg xmlns="http://www.w3.org/2000/svg" width="107.147" height="75" viewBox="0 0 107.147 75">
  <path id="box-open" d="M71.23,69.468A8.115,8.115,0,0,1,64.3,65.551L53.535,47.705,42.787,65.551a8.142,8.142,0,0,1-6.947,3.934,7.7,7.7,0,0,1-2.227-.318L10.679,62.6V92.4a5.34,5.34,0,0,0,4.051,5.19l36.193,9.057a10.882,10.882,0,0,0,5.19,0L92.34,97.592a5.369,5.369,0,0,0,4.051-5.19V62.6L73.456,69.15A7.7,7.7,0,0,1,71.23,69.468ZM106.82,50.685,98.2,33.476a2.734,2.734,0,0,0-2.8-1.49l-41.868,5.34L68.886,62.789a2.751,2.751,0,0,0,3.1,1.222l33.13-9.458a2.757,2.757,0,0,0,1.708-3.867ZM8.871,33.476.249,50.685a2.729,2.729,0,0,0,1.691,3.85l33.13,9.458a2.751,2.751,0,0,0,3.1-1.222L53.535,37.326,11.65,31.986A2.736,2.736,0,0,0,8.871,33.476Z" transform="translate(0.042 -31.963)" fill="#f6eeee"/>
</svg>
