<svg xmlns="http://www.w3.org/2000/svg" width="38.742" height="33.903" viewBox="0 0 38.742 33.903">
  <path id="cubes" d="M36.972,48.488l-7.31-2.739v-8.21a2.724,2.724,0,0,0-1.771-2.55l-7.567-2.838a2.692,2.692,0,0,0-1.914,0l-7.567,2.838a2.724,2.724,0,0,0-1.771,2.55v8.21l-7.31,2.739A2.727,2.727,0,0,0,0,51.038v8.331a2.727,2.727,0,0,0,1.506,2.437l7.567,3.783a2.709,2.709,0,0,0,2.437,0l7.862-3.935,7.862,3.935a2.709,2.709,0,0,0,2.437,0l7.567-3.783a2.727,2.727,0,0,0,1.506-2.437V51.038A2.724,2.724,0,0,0,36.972,48.488Zm-9.882-2.679-6.432,2.414V43.062l6.432-2.8ZM11.653,37.433l7.718-2.891,7.718,2.891v.045l-7.718,3.133-7.718-3.133ZM18.009,59.46l-6.432,3.216V56.69l6.432-2.936Zm0-8.475-7.718,3.133L2.573,50.985V50.94l7.718-2.891,7.718,2.891ZM36.17,59.46l-6.432,3.216V56.69l6.432-2.936Zm0-8.475-7.718,3.133-7.718-3.133V50.94l7.718-2.891L36.17,50.94Z" transform="translate(0 -31.975)" fill="#29c3f6"/>
</svg>
